<svg width="204" height="22" viewBox="0 0 204 22" fill="none" xmlns="http://www.w3.org/2000/svg">
<path d="M28.352 7.278V10.54H31.908V11.59H28.352V14.95H32.328V16H27.078V6.228H32.328V7.278H28.352ZM36.9717 16.126C36.3837 16.126 35.8564 16.028 35.3897 15.832C34.9231 15.6267 34.5544 15.3467 34.2837 14.992C34.0131 14.628 33.8637 14.2127 33.8357 13.746H35.1517C35.1891 14.1287 35.3664 14.4413 35.6837 14.684C36.0104 14.9267 36.4351 15.048 36.9577 15.048C37.4431 15.048 37.8257 14.9407 38.1057 14.726C38.3857 14.5113 38.5257 14.2407 38.5257 13.914C38.5257 13.578 38.3764 13.3307 38.0777 13.172C37.7791 13.004 37.3171 12.8407 36.6917 12.682C36.1224 12.5327 35.6557 12.3833 35.2917 12.234C34.9371 12.0753 34.6291 11.8467 34.3677 11.548C34.1157 11.24 33.9897 10.8387 33.9897 10.344C33.9897 9.952 34.1064 9.59267 34.3397 9.266C34.5731 8.93933 34.9044 8.68267 35.3337 8.496C35.7631 8.3 36.2531 8.202 36.8037 8.202C37.6531 8.202 38.3391 8.41667 38.8617 8.846C39.3844 9.27533 39.6644 9.86333 39.7017 10.61H38.4277C38.3997 10.2087 38.2364 9.88667 37.9377 9.644C37.6484 9.40133 37.2564 9.28 36.7617 9.28C36.3044 9.28 35.9404 9.378 35.6697 9.574C35.3991 9.77 35.2637 10.0267 35.2637 10.344C35.2637 10.596 35.3431 10.806 35.5017 10.974C35.6697 11.1327 35.8751 11.2633 36.1177 11.366C36.3697 11.4593 36.7151 11.5667 37.1537 11.688C37.7044 11.8373 38.1524 11.9867 38.4977 12.136C38.8431 12.276 39.1371 12.4907 39.3797 12.78C39.6317 13.0693 39.7624 13.4473 39.7717 13.914C39.7717 14.334 39.6551 14.712 39.4217 15.048C39.1884 15.384 38.8571 15.65 38.4277 15.846C38.0077 16.0327 37.5224 16.126 36.9717 16.126ZM43.1242 9.378V13.9C43.1242 14.2733 43.2035 14.5393 43.3622 14.698C43.5209 14.8473 43.7962 14.922 44.1882 14.922H45.1262V16H43.9782C43.2689 16 42.7369 15.8367 42.3822 15.51C42.0275 15.1833 41.8502 14.6467 41.8502 13.9V9.378H40.8562V8.328H41.8502V6.396H43.1242V8.328H45.1262V9.378H43.1242ZM46.1938 12.136C46.1938 11.352 46.3525 10.666 46.6698 10.078C46.9871 9.48067 47.4211 9.01867 47.9718 8.692C48.5318 8.36533 49.1525 8.202 49.8338 8.202C50.5058 8.202 51.0891 8.34667 51.5838 8.636C52.0785 8.92533 52.4471 9.28933 52.6898 9.728V8.328H53.9778V16H52.6898V14.572C52.4378 15.02 52.0598 15.3933 51.5558 15.692C51.0611 15.9813 50.4825 16.126 49.8198 16.126C49.1385 16.126 48.5225 15.958 47.9718 15.622C47.4211 15.286 46.9871 14.8147 46.6698 14.208C46.3525 13.6013 46.1938 12.9107 46.1938 12.136ZM52.6898 12.15C52.6898 11.5713 52.5731 11.0673 52.3398 10.638C52.1065 10.2087 51.7891 9.882 51.3878 9.658C50.9958 9.42467 50.5618 9.308 50.0858 9.308C49.6098 9.308 49.1758 9.42 48.7838 9.644C48.3918 9.868 48.0791 10.1947 47.8458 10.624C47.6125 11.0533 47.4958 11.5573 47.4958 12.136C47.4958 12.724 47.6125 13.2373 47.8458 13.676C48.0791 14.1053 48.3918 14.4367 48.7838 14.67C49.1758 14.894 49.6098 15.006 50.0858 15.006C50.5618 15.006 50.9958 14.894 51.3878 14.67C51.7891 14.4367 52.1065 14.1053 52.3398 13.676C52.5731 13.2373 52.6898 12.7287 52.6898 12.15ZM61.1372 9.742C61.3892 9.30333 61.7625 8.93933 62.2572 8.65C62.7612 8.35133 63.3445 8.202 64.0072 8.202C64.6885 8.202 65.3045 8.36533 65.8552 8.692C66.4152 9.01867 66.8538 9.48067 67.1712 10.078C67.4885 10.666 67.6472 11.352 67.6472 12.136C67.6472 12.9107 67.4885 13.6013 67.1712 14.208C66.8538 14.8147 66.4152 15.286 65.8552 15.622C65.3045 15.958 64.6885 16.126 64.0072 16.126C63.3538 16.126 62.7752 15.9813 62.2712 15.692C61.7765 15.3933 61.3985 15.0247 61.1372 14.586V19.64H59.8632V8.328H61.1372V9.742ZM66.3452 12.136C66.3452 11.5573 66.2285 11.0533 65.9952 10.624C65.7618 10.1947 65.4445 9.868 65.0432 9.644C64.6512 9.42 64.2172 9.308 63.7412 9.308C63.2745 9.308 62.8405 9.42467 62.4392 9.658C62.0472 9.882 61.7298 10.2133 61.4872 10.652C61.2538 11.0813 61.1372 11.5807 61.1372 12.15C61.1372 12.7287 61.2538 13.2373 61.4872 13.676C61.7298 14.1053 62.0472 14.4367 62.4392 14.67C62.8405 14.894 63.2745 15.006 63.7412 15.006C64.2172 15.006 64.6512 14.894 65.0432 14.67C65.4445 14.4367 65.7618 14.1053 65.9952 13.676C66.2285 13.2373 66.3452 12.724 66.3452 12.136ZM76.3241 11.87C76.3241 12.1127 76.3101 12.3693 76.2821 12.64H70.1501C70.1968 13.396 70.4534 13.9887 70.9201 14.418C71.3961 14.838 71.9701 15.048 72.6421 15.048C73.1928 15.048 73.6501 14.922 74.0141 14.67C74.3874 14.4087 74.6488 14.0633 74.7981 13.634H76.1701C75.9648 14.3713 75.5541 14.9733 74.9381 15.44C74.3221 15.8973 73.5568 16.126 72.6421 16.126C71.9141 16.126 71.2608 15.9627 70.6821 15.636C70.1128 15.3093 69.6648 14.8473 69.3381 14.25C69.0114 13.6433 68.8481 12.9433 68.8481 12.15C68.8481 11.3567 69.0068 10.6613 69.3241 10.064C69.6414 9.46667 70.0848 9.00933 70.6541 8.692C71.2328 8.36533 71.8954 8.202 72.6421 8.202C73.3701 8.202 74.0141 8.36067 74.5741 8.678C75.1341 8.99533 75.5634 9.434 75.8621 9.994C76.1701 10.5447 76.3241 11.17 76.3241 11.87ZM75.0081 11.604C75.0081 11.1187 74.9008 10.7033 74.6861 10.358C74.4714 10.0033 74.1774 9.73733 73.8041 9.56C73.4401 9.37333 73.0341 9.28 72.5861 9.28C71.9421 9.28 71.3914 9.48533 70.9341 9.896C70.4861 10.3067 70.2294 10.876 70.1641 11.604H75.0081ZM79.2797 9.574C79.5037 9.13533 79.8211 8.79467 80.2317 8.552C80.6517 8.30933 81.1604 8.188 81.7577 8.188V9.504H81.4217C79.9937 9.504 79.2797 10.2787 79.2797 11.828V16H78.0057V8.328H79.2797V9.574ZM86.3924 8.202C87.0551 8.202 87.6337 8.34667 88.1284 8.636C88.6324 8.92533 89.0057 9.28933 89.2484 9.728V8.328H90.5364V16.168C90.5364 16.868 90.3871 17.4887 90.0884 18.03C89.7897 18.5807 89.3604 19.01 88.8004 19.318C88.2497 19.626 87.6057 19.78 86.8684 19.78C85.8604 19.78 85.0204 19.542 84.3484 19.066C83.6764 18.59 83.2797 17.9413 83.1584 17.12H84.4184C84.5584 17.5867 84.8477 17.96 85.2864 18.24C85.7251 18.5293 86.2524 18.674 86.8684 18.674C87.5684 18.674 88.1377 18.4547 88.5764 18.016C89.0244 17.5773 89.2484 16.9613 89.2484 16.168V14.558C88.9964 15.006 88.6231 15.3793 88.1284 15.678C87.6337 15.9767 87.0551 16.126 86.3924 16.126C85.7111 16.126 85.0904 15.958 84.5304 15.622C83.9797 15.286 83.5457 14.8147 83.2284 14.208C82.9111 13.6013 82.7524 12.9107 82.7524 12.136C82.7524 11.352 82.9111 10.666 83.2284 10.078C83.5457 9.48067 83.9797 9.01867 84.5304 8.692C85.0904 8.36533 85.7111 8.202 86.3924 8.202ZM89.2484 12.15C89.2484 11.5713 89.1317 11.0673 88.8984 10.638C88.6651 10.2087 88.3477 9.882 87.9464 9.658C87.5544 9.42467 87.1204 9.308 86.6444 9.308C86.1684 9.308 85.7344 9.42 85.3424 9.644C84.9504 9.868 84.6377 10.1947 84.4044 10.624C84.1711 11.0533 84.0544 11.5573 84.0544 12.136C84.0544 12.724 84.1711 13.2373 84.4044 13.676C84.6377 14.1053 84.9504 14.4367 85.3424 14.67C85.7344 14.894 86.1684 15.006 86.6444 15.006C87.1204 15.006 87.5544 14.894 87.9464 14.67C88.3477 14.4367 88.6651 14.1053 88.8984 13.676C89.1317 13.2373 89.2484 12.7287 89.2484 12.15ZM99.4933 8.328V16H98.2193V14.866C97.9767 15.258 97.636 15.566 97.1973 15.79C96.768 16.0047 96.292 16.112 95.7693 16.112C95.172 16.112 94.6353 15.9907 94.1593 15.748C93.6833 15.496 93.3053 15.1227 93.0253 14.628C92.7547 14.1333 92.6193 13.5313 92.6193 12.822V8.328H93.8793V12.654C93.8793 13.41 94.0707 13.9933 94.4533 14.404C94.836 14.8053 95.3587 15.006 96.0213 15.006C96.7027 15.006 97.2393 14.796 97.6313 14.376C98.0233 13.956 98.2193 13.3447 98.2193 12.542V8.328H99.4933ZM105.382 8.188C106.316 8.188 107.072 8.47267 107.65 9.042C108.229 9.602 108.518 10.414 108.518 11.478V16H107.258V11.66C107.258 10.8947 107.067 10.3113 106.684 9.91C106.302 9.49933 105.779 9.294 105.116 9.294C104.444 9.294 103.908 9.504 103.506 9.924C103.114 10.344 102.918 10.9553 102.918 11.758V16H101.644V8.328H102.918V9.42C103.17 9.028 103.511 8.72467 103.94 8.51C104.379 8.29533 104.86 8.188 105.382 8.188ZM112.153 9.378V13.9C112.153 14.2733 112.233 14.5393 112.391 14.698C112.55 14.8473 112.825 14.922 113.217 14.922H114.155V16H113.007C112.298 16 111.766 15.8367 111.411 15.51C111.057 15.1833 110.879 14.6467 110.879 13.9V9.378H109.885V8.328H110.879V6.396H112.153V8.328H114.155V9.378H112.153ZM115.223 12.136C115.223 11.352 115.382 10.666 115.699 10.078C116.016 9.48067 116.45 9.01867 117.001 8.692C117.561 8.36533 118.182 8.202 118.863 8.202C119.535 8.202 120.118 8.34667 120.613 8.636C121.108 8.92533 121.476 9.28933 121.719 9.728V8.328H123.007V16H121.719V14.572C121.467 15.02 121.089 15.3933 120.585 15.692C120.09 15.9813 119.512 16.126 118.849 16.126C118.168 16.126 117.552 15.958 117.001 15.622C116.45 15.286 116.016 14.8147 115.699 14.208C115.382 13.6013 115.223 12.9107 115.223 12.136ZM121.719 12.15C121.719 11.5713 121.602 11.0673 121.369 10.638C121.136 10.2087 120.818 9.882 120.417 9.658C120.025 9.42467 119.591 9.308 119.115 9.308C118.639 9.308 118.205 9.42 117.813 9.644C117.421 9.868 117.108 10.1947 116.875 10.624C116.642 11.0533 116.525 11.5573 116.525 12.136C116.525 12.724 116.642 13.2373 116.875 13.676C117.108 14.1053 117.421 14.4367 117.813 14.67C118.205 14.894 118.639 15.006 119.115 15.006C119.591 15.006 120.025 14.894 120.417 14.67C120.818 14.4367 121.136 14.1053 121.369 13.676C121.602 13.2373 121.719 12.7287 121.719 12.15ZM135.892 11.87C135.892 12.1127 135.878 12.3693 135.85 12.64H129.718C129.765 13.396 130.022 13.9887 130.488 14.418C130.964 14.838 131.538 15.048 132.21 15.048C132.761 15.048 133.218 14.922 133.582 14.67C133.956 14.4087 134.217 14.0633 134.366 13.634H135.738C135.533 14.3713 135.122 14.9733 134.506 15.44C133.89 15.8973 133.125 16.126 132.21 16.126C131.482 16.126 130.829 15.9627 130.25 15.636C129.681 15.3093 129.233 14.8473 128.906 14.25C128.58 13.6433 128.416 12.9433 128.416 12.15C128.416 11.3567 128.575 10.6613 128.892 10.064C129.21 9.46667 129.653 9.00933 130.222 8.692C130.801 8.36533 131.464 8.202 132.21 8.202C132.938 8.202 133.582 8.36067 134.142 8.678C134.702 8.99533 135.132 9.434 135.43 9.994C135.738 10.5447 135.892 11.17 135.892 11.87ZM134.576 11.604C134.576 11.1187 134.469 10.7033 134.254 10.358C134.04 10.0033 133.746 9.73733 133.372 9.56C133.008 9.37333 132.602 9.28 132.154 9.28C131.51 9.28 130.96 9.48533 130.502 9.896C130.054 10.3067 129.798 10.876 129.732 11.604H134.576ZM133.526 6.158L130.544 7.754V6.802L133.526 5.052V6.158ZM140.831 12.136C140.831 11.352 140.989 10.666 141.307 10.078C141.624 9.48067 142.058 9.01867 142.609 8.692C143.169 8.36533 143.789 8.202 144.471 8.202C145.143 8.202 145.726 8.34667 146.221 8.636C146.715 8.92533 147.084 9.28933 147.327 9.728V8.328H148.615V16H147.327V14.572C147.075 15.02 146.697 15.3933 146.193 15.692C145.698 15.9813 145.119 16.126 144.457 16.126C143.775 16.126 143.159 15.958 142.609 15.622C142.058 15.286 141.624 14.8147 141.307 14.208C140.989 13.6013 140.831 12.9107 140.831 12.136ZM147.327 12.15C147.327 11.5713 147.21 11.0673 146.977 10.638C146.743 10.2087 146.426 9.882 146.025 9.658C145.633 9.42467 145.199 9.308 144.723 9.308C144.247 9.308 143.813 9.42 143.421 9.644C143.029 9.868 142.716 10.1947 142.483 10.624C142.249 11.0533 142.133 11.5573 142.133 12.136C142.133 12.724 142.249 13.2373 142.483 13.676C142.716 14.1053 143.029 14.4367 143.421 14.67C143.813 14.894 144.247 15.006 144.723 15.006C145.199 15.006 145.633 14.894 146.025 14.67C146.426 14.4367 146.743 14.1053 146.977 13.676C147.21 13.2373 147.327 12.7287 147.327 12.15ZM154.505 8.188C155.439 8.188 156.195 8.47267 156.773 9.042C157.352 9.602 157.641 10.414 157.641 11.478V16H156.381V11.66C156.381 10.8947 156.19 10.3113 155.807 9.91C155.425 9.49933 154.902 9.294 154.239 9.294C153.567 9.294 153.031 9.504 152.629 9.924C152.237 10.344 152.041 10.9553 152.041 11.758V16H150.767V8.328H152.041V9.42C152.293 9.028 152.634 8.72467 153.063 8.51C153.502 8.29533 153.983 8.188 154.505 8.188ZM163.069 16.126C162.35 16.126 161.697 15.9627 161.109 15.636C160.53 15.3093 160.073 14.8473 159.737 14.25C159.41 13.6433 159.247 12.9433 159.247 12.15C159.247 11.366 159.415 10.6753 159.751 10.078C160.096 9.47133 160.563 9.00933 161.151 8.692C161.739 8.36533 162.397 8.202 163.125 8.202C163.853 8.202 164.511 8.36533 165.099 8.692C165.687 9.00933 166.149 9.46667 166.485 10.064C166.83 10.6613 167.003 11.3567 167.003 12.15C167.003 12.9433 166.825 13.6433 166.471 14.25C166.125 14.8473 165.654 15.3093 165.057 15.636C164.459 15.9627 163.797 16.126 163.069 16.126ZM163.069 15.006C163.526 15.006 163.955 14.8987 164.357 14.684C164.758 14.4693 165.08 14.1473 165.323 13.718C165.575 13.2887 165.701 12.766 165.701 12.15C165.701 11.534 165.579 11.0113 165.337 10.582C165.094 10.1527 164.777 9.83533 164.385 9.63C163.993 9.41533 163.568 9.308 163.111 9.308C162.644 9.308 162.215 9.41533 161.823 9.63C161.44 9.83533 161.132 10.1527 160.899 10.582C160.665 11.0113 160.549 11.534 160.549 12.15C160.549 12.7753 160.661 13.3027 160.885 13.732C161.118 14.1613 161.426 14.4833 161.809 14.698C162.191 14.9033 162.611 15.006 163.069 15.006ZM163.139 6.354L161.193 7.544V6.536L163.139 5.374L165.071 6.536V7.544L163.139 6.354ZM172.416 8.188C173.349 8.188 174.105 8.47267 174.684 9.042C175.262 9.602 175.552 10.414 175.552 11.478V16H174.292V11.66C174.292 10.8947 174.1 10.3113 173.718 9.91C173.335 9.49933 172.812 9.294 172.15 9.294C171.478 9.294 170.941 9.504 170.54 9.924C170.148 10.344 169.952 10.9553 169.952 11.758V16H168.678V8.328H169.952V9.42C170.204 9.028 170.544 8.72467 170.974 8.51C171.412 8.29533 171.893 8.188 172.416 8.188ZM178.291 7.082C178.048 7.082 177.843 6.998 177.675 6.83C177.507 6.662 177.423 6.45667 177.423 6.214C177.423 5.97133 177.507 5.766 177.675 5.598C177.843 5.43 178.048 5.346 178.291 5.346C178.524 5.346 178.72 5.43 178.879 5.598C179.047 5.766 179.131 5.97133 179.131 6.214C179.131 6.45667 179.047 6.662 178.879 6.83C178.72 6.998 178.524 7.082 178.291 7.082ZM178.907 8.328V16H177.633V8.328H178.907ZM190.304 8.188C190.901 8.188 191.433 8.314 191.9 8.566C192.367 8.80867 192.735 9.17733 193.006 9.672C193.277 10.1667 193.412 10.7687 193.412 11.478V16H192.152V11.66C192.152 10.8947 191.961 10.3113 191.578 9.91C191.205 9.49933 190.696 9.294 190.052 9.294C189.389 9.294 188.862 9.50867 188.47 9.938C188.078 10.358 187.882 10.9693 187.882 11.772V16H186.622V11.66C186.622 10.8947 186.431 10.3113 186.048 9.91C185.675 9.49933 185.166 9.294 184.522 9.294C183.859 9.294 183.332 9.50867 182.94 9.938C182.548 10.358 182.352 10.9693 182.352 11.772V16H181.078V8.328H182.352V9.434C182.604 9.03267 182.94 8.72467 183.36 8.51C183.789 8.29533 184.261 8.188 184.774 8.188C185.418 8.188 185.987 8.33267 186.482 8.622C186.977 8.91133 187.345 9.336 187.588 9.896C187.803 9.35467 188.157 8.93467 188.652 8.636C189.147 8.33733 189.697 8.188 190.304 8.188ZM195.026 12.136C195.026 11.352 195.184 10.666 195.502 10.078C195.819 9.48067 196.253 9.01867 196.804 8.692C197.364 8.36533 197.984 8.202 198.666 8.202C199.338 8.202 199.921 8.34667 200.416 8.636C200.91 8.92533 201.279 9.28933 201.522 9.728V8.328H202.81V16H201.522V14.572C201.27 15.02 200.892 15.3933 200.388 15.692C199.893 15.9813 199.314 16.126 198.652 16.126C197.97 16.126 197.354 15.958 196.804 15.622C196.253 15.286 195.819 14.8147 195.502 14.208C195.184 13.6013 195.026 12.9107 195.026 12.136ZM201.522 12.15C201.522 11.5713 201.405 11.0673 201.172 10.638C200.938 10.2087 200.621 9.882 200.22 9.658C199.828 9.42467 199.394 9.308 198.918 9.308C198.442 9.308 198.008 9.42 197.616 9.644C197.224 9.868 196.911 10.1947 196.678 10.624C196.444 11.0533 196.328 11.5573 196.328 12.136C196.328 12.724 196.444 13.2373 196.678 13.676C196.911 14.1053 197.224 14.4367 197.616 14.67C198.008 14.894 198.442 15.006 198.918 15.006C199.394 15.006 199.828 14.894 200.22 14.67C200.621 14.4367 200.938 14.1053 201.172 13.676C201.405 13.2373 201.522 12.7287 201.522 12.15Z" fill="#A5B0C1"/>
<path d="M14.9999 7.66665H14.1666V5.99998C14.1666 3.69998 12.2999 1.83331 9.99992 1.83331C7.69992 1.83331 5.83325 3.69998 5.83325 5.99998V7.66665H4.99992C4.08325 7.66665 3.33325 8.41665 3.33325 9.33331V17.6666C3.33325 18.5833 4.08325 19.3333 4.99992 19.3333H14.9999C15.9166 19.3333 16.6666 18.5833 16.6666 17.6666V9.33331C16.6666 8.41665 15.9166 7.66665 14.9999 7.66665ZM9.99992 15.1666C9.08325 15.1666 8.33325 14.4166 8.33325 13.5C8.33325 12.5833 9.08325 11.8333 9.99992 11.8333C10.9166 11.8333 11.6666 12.5833 11.6666 13.5C11.6666 14.4166 10.9166 15.1666 9.99992 15.1666ZM12.5833 7.66665H7.41658V5.99998C7.41658 4.57498 8.57492 3.41665 9.99992 3.41665C11.4249 3.41665 12.5833 4.57498 12.5833 5.99998V7.66665Z" fill="#A5B0C1"/>
</svg>
